<svg xmlns="http://www.w3.org/2000/svg" xml:space="preserve" fill-rule="evenodd" stroke-linejoin="round" stroke-miterlimit="2" clip-rule="evenodd" viewBox="0 0 1600 900">
  <path fill="none" d="M0 0h1602.608v932.598H0z"/>
  <path fill="#666" d="M0 0h1600.003v899.998H0z"/>
  <path fill="#aaa" fill-rule="nonzero" d="M1041.174 169.507H560.329c-43.15 0-79.025 35.875-79.025 80.14v400.704c0 44.265 35.875 80.14 79.014 80.14h480.845c44.265 0 80.14-35.875 80.14-80.14V249.648c.012-44.266-34.8-80.141-80.129-80.141Zm-420.74 80.14c33.196 0 60.106 26.91 60.106 60.106s-25.795 60.106-60.105 60.106c-34.31 0-60.106-26.91-60.106-60.106s28.024-60.105 60.106-60.105Zm419.488 390.185c-3.506 6.512-10.268 10.519-17.656 10.519H584.008a20.027 20.027 0 0 1-17.856-10.957 20.034 20.034 0 0 1 1.67-20.887l87.654-120.21c3.777-5.222 9.787-8.227 16.174-8.227a20.057 20.057 0 0 1 16.19 8.232l40.647 55.735 116.83-174.18c3.77-6.617 10.03-9.998 16.667-9.998 6.637 0 12.96 3.345 16.667 8.922l160.282 240.421c4.12 6.105 4.495 13.994.989 20.63Z"/>
</svg>
