<!-- Generated by IcoMoon.io -->
<svg version="1.1" xmlns="http://www.w3.org/2000/svg" width="1024" height="1024" viewBox="0 0 1024 1024">
<title></title>
<g id="icomoon-ignore">
</g>
<path d="M533.76 563.797c1.963-34.133 18.688-64.256 43.947-85.589 25.114-20.975 57.742-33.71 93.344-33.71 0.364 0 0.727 0.001 1.090 0.004h-0.056c36.267 0 69.589 12.8 94.336 33.707 25.259 21.333 41.941 51.456 43.861 85.547 1.92 35.115-12.16 67.669-36.907 91.861-25.909 24.777-61.108 40.028-99.868 40.028-0.5 0-0.999-0.003-1.498-0.008l0.076 0.001c-0.428 0.005-0.933 0.007-1.439 0.007-38.783 0-74.003-15.25-99.992-40.081l0.055 0.052c-24.747-24.192-38.827-56.747-36.907-91.819zM313.6 632.789c0.256 13.397 4.523 39.339 10.923 59.648 14.706 45.68 37.989 84.991 68.175 117.861l-0.207-0.229c32.635 35.789 72.215 64.627 116.683 84.487l2.229 0.889c45.317 20.492 98.254 32.433 153.98 32.433 0.766 0 1.532-0.002 2.298-0.007l-0.118 0.001c0.224 0 0.489 0.001 0.754 0.001 56.219 0 109.604-12.13 157.683-33.914l-2.404 0.975c46.654-20.938 86.194-49.889 118.57-85.474l0.256-0.286c29.922-32.735 53.184-72.108 67.296-115.603l0.629-2.242c8.666-26.625 13.663-57.262 13.663-89.066 0-14.849-1.089-29.444-3.192-43.709l0.196 1.617c-6.494-44.613-21.78-84.658-44.084-119.81l0.735 1.24c-21.491-34.097-47.756-62.956-78.263-86.604l-0.756-0.564h0.085l-320.768-246.272c-20.992-16.128-56.277-16.043-79.36 0.085-23.339 16.299-25.984 43.307-5.248 60.373l-0.043 0.043 133.376 108.501-407.168 0.427c-33.621 0.043-65.92 22.101-72.32 50.005-6.571 28.373 16.213 51.925 51.2 52.053v0.085l206.080-0.427-369.237 283.392c-34.688 26.539-45.867 70.741-24.021 98.688 22.187 28.459 69.333 28.501 104.405 0.171l200.704-164.224c0 0-2.944 22.187-2.731 35.456zM829.44 707.072c-41.387 42.155-99.243 66.048-161.92 66.133-62.72 0.171-120.619-23.552-162.005-65.621-19.025-19.098-34.067-42.178-43.764-67.88l-0.439-1.325c-6.817-18.383-10.761-39.619-10.761-61.776 0-32.43 8.45-62.887 23.267-89.288l-0.475 0.92c12.931-22.977 29.367-42.379 48.826-58.206l0.368-0.29c40.192-32.768 91.349-50.475 144.896-50.56 53.589-0.085 104.747 17.493 144.981 50.133 20.48 16.683 37.12 36.437 49.152 58.325 11.888 21.009 19.852 45.741 22.221 72.085l0.051 0.704c0.426 4.657 0.67 10.072 0.67 15.544 0 22.148-3.984 43.366-11.274 62.975l0.407-1.25c-10.141 27.077-25.167 50.21-44.174 69.39l0.014-0.014z"></path>
</svg>
